<svg class="h-12" xmlns="http://www.w3.org/2000/svg" viewBox="0 0 70 117.99"><defs><style>.cls-1{fill:#fff;stroke:#000;stroke-miterlimit:10;stroke-width:4px;}</style></defs><g id="Layer_2" data-name="Layer 2"><g id="Layer_2-2" data-name="Layer 2"><path class="cls-1" d="M63.35,31.49V25.38C63.35,13,50.65,2,35,2S6.65,13,6.65,25.38v6.11a5.48,5.48,0,0,0-4.06,5.1V58.14c0,2.89,2.56,5.27,5.81,5.41v.6a1.12,1.12,0,0,0,1.18,1h5.19a1.12,1.12,0,0,0,1.18-1v-34a1.12,1.12,0,0,0-1.18-1.05H11.88V25.35C11.88,15.26,22.23,7.08,35,7.06s23.12,8.2,23.12,18.29v3.71H55.23a1.12,1.12,0,0,0-1.18,1.05v34a1.12,1.12,0,0,0,1.18,1h5.19a1.12,1.12,0,0,0,1.18-1h0v-.6c3.25-.14,5.81-2.52,5.81-5.41V36.59a5.48,5.48,0,0,0-4.06-5.1Z"/><rect class="cls-1" x="2" y="81.2" width="66" height="12"/><rect class="cls-1" x="7" y="70.2" width="57" height="11"/><circle class="cls-1" cx="35" cy="63.2" r="24"/><circle class="cls-1" cx="35" cy="63.2" r="7"/><polyline class="cls-1" points="39 38.2 39 28.2 45 19.2 42 15.2 35 15.2 28 15.2 25 19.2 31 28.2 31 38.2"/><polyline class="cls-1" points="13.42 93.7 13.42 103.7 33.19 108.7 33.19 93.7 24.42 93.7 24.19 104.7"/><line class="cls-1" x1="10.19" y1="116.7" x2="19.24" y2="105.92"/><polyline class="cls-1" points="56.58 93.7 56.58 103.7 36.81 108.7 36.81 93.7 45.58 93.7 45.81 104.7"/><line class="cls-1" x1="59.81" y1="116.7" x2="50.76" y2="105.92"/></g></g></svg>
